<svg xmlns="http://www.w3.org/2000/svg" width="931" height="309" fill="none" viewBox="0 0 931 309"><path stroke="#000" d="M257 20H931"/><path stroke="#000" d="M18 86H931"/><path stroke="#000" d="M159 151H931"/><path stroke="#000" d="M371 217H931"/><path stroke="#000" d="M95 285H931"/><circle cx="170" cy="151" r="20" fill="#C4C4C4"/><circle cx="276" cy="20" r="20" fill="#C4C4C4"/><circle cx="254" cy="285" r="20" fill="#E17729"/><circle cx="174" cy="86" r="20" fill="#C4C4C4"/><circle cx="100" cy="285" r="20" fill="#C4C4C4"/><circle cx="20" cy="86" r="20" fill="#5C6DBA"/><circle cx="315" cy="151" r="20" fill="#5C6DBA"/><circle cx="421" cy="20" r="20" fill="#5C6DBA"/><circle cx="454" cy="285" r="20" fill="#C4C4C4"/><circle cx="374" cy="86" r="20" fill="#E17729"/><circle cx="411" cy="217" r="20" fill="#C4C4C4"/><circle cx="593" cy="151" r="20" fill="#C4C4C4"/><circle cx="699" cy="20" r="20" fill="#C4C4C4"/><circle cx="878" cy="20" r="20" fill="#C4C4C4"/><circle cx="666" cy="285" r="20" fill="#5C6DBA"/><circle cx="623" cy="217" r="20" fill="#C4C4C4"/><circle cx="739" cy="285" r="20" fill="#C4C4C4"/><circle cx="659" cy="86" r="20" fill="#E17729"/><circle cx="819" cy="217" r="20" fill="#C4C4C4"/><circle cx="738" cy="151" r="20" fill="#5C6DBA"/><circle cx="877" cy="289" r="20" fill="#E17729"/></svg>